<?xml version="1.0" standalone="no"?>
<!DOCTYPE svg PUBLIC "-//W3C//DTD SVG 20010904//EN"
 "http://www.w3.org/TR/2001/REC-SVG-20010904/DTD/svg10.dtd">
<svg version="1.0" xmlns="http://www.w3.org/2000/svg"
 width="200.000000pt" height="200.000000pt" viewBox="0 0 200.000000 200.000000"
 preserveAspectRatio="xMidYMid meet">
<metadata>
Created by potrace 1.14, written by Peter Selinger 2001-2017
</metadata>
<g transform="translate(0.000000,200.000000) scale(0.100000,-0.100000)"
fill="#000000" stroke="none">
<path d="M951 1899 c-22 -23 -38 -46 -35 -50 3 -5 -1 -9 -9 -9 -19 0 -808
-790 -801 -801 3 -5 49 -9 103 -9 l98 0 220 220 c214 214 221 220 225 191 3
-22 1 -28 -7 -21 -8 6 -79 -59 -226 -206 -117 -118 -216 -217 -219 -220 -2 -3
21 -29 53 -59 l57 -54 38 39 38 39 49 -47 50 -47 -2 -79 -2 -79 75 -74 c41
-41 80 -73 87 -70 9 3 11 -28 9 -134 l-3 -138 75 -76 c42 -42 80 -74 86 -70 5
3 10 0 10 -8 0 -17 62 -87 76 -87 11 0 82 70 86 85 2 6 5 9 8 8 3 -1 187 181
409 403 282 281 399 404 385 405 -10 1 -59 2 -109 3 l-90 1 -218 -217 c-120
-120 -219 -218 -221 -218 -1 0 -3 21 -3 48 0 26 1 35 4 20 2 -16 8 -28 11 -28
4 0 40 33 80 73 l73 73 1 79 1 79 46 48 46 48 38 -35 c20 -19 41 -35 45 -35
10 0 102 93 102 104 0 9 -424 436 -433 436 -3 0 -7 -10 -10 -22 -2 -13 -4 47
-4 134 l-1 156 -73 74 c-41 40 -77 72 -81 70 -5 -1 -8 2 -8 7 0 10 -75 91 -83
91 -3 0 -24 -19 -46 -41z m296 -566 c-3 -10 -5 -2 -5 17 0 19 2 27 5 18 2 -10
2 -26 0 -35z m0 -75 c-2 -13 -4 -5 -4 17 -1 22 1 32 4 23 2 -10 2 -28 0 -40z
m0 -80 c-2 -13 -4 -5 -4 17 -1 22 1 32 4 23 2 -10 2 -28 0 -40z m0 -80 c-2
-13 -4 -5 -4 17 -1 22 1 32 4 23 2 -10 2 -28 0 -40z m3 -87 l0 -58 -85 0 c-84
0 -85 1 -86 26 0 14 -2 34 -4 43 -2 10 1 20 6 24 5 3 9 0 9 -5 0 -7 28 -11 71
-11 62 0 71 2 76 20 9 34 13 22 13 -39z m-401 19 l71 0 -2 -45 c-1 -29 -5 -42
-12 -38 -17 11 -130 10 -143 0 -14 -11 -14 -11 -17 55 -1 40 1 45 16 37 9 -5
49 -9 87 -9z m398 -172 c-2 -13 -4 -5 -4 17 -1 22 1 32 4 23 2 -10 2 -28 0
-40z m0 -80 c-2 -13 -4 -5 -4 17 -1 22 1 32 4 23 2 -10 2 -28 0 -40z m0 -65
c-3 -10 -5 -4 -5 12 0 17 2 24 5 18 2 -7 2 -21 0 -30z m0 -45 c-3 -8 -6 -5 -6
6 -1 11 2 17 5 13 3 -3 4 -12 1 -19z m0 -40 c-3 -8 -6 -5 -6 6 -1 11 2 17 5
13 3 -3 4 -12 1 -19z m-166 -281 c-10 -9 -11 -8 -5 6 3 10 9 15 12 12 3 -3 0
-11 -7 -18z"/>
</g>
</svg>
